<svg xmlns="http://www.w3.org/2000/svg" viewBox="0 0 1280 800" width="1280" height="800">
    <defs>
      <linearGradient id="bg" x1="0" y1="0" x2="1" y2="1">
        <stop offset="0%" stop-color="#715EB4"/>
        <stop offset="50%" stop-color="#8F7BDA"/>
        <stop offset="100%" stop-color="#5E4CB7"/>
      </linearGradient>
      <radialGradient id="glow1" cx="20%" cy="20%" r="50%"><stop offset="0%" stop-color="rgba(255,255,255,0.35)"/><stop offset="100%" stop-color="rgba(255,255,255,0)"/></radialGradient>
      <radialGradient id="glow2" cx="85%" cy="90%" r="50%"><stop offset="0%" stop-color="rgba(0,0,0,0.35)"/><stop offset="100%" stop-color="rgba(0,0,0,0)"/></radialGradient>
      <pattern id="grid" width="40" height="40" patternUnits="userSpaceOnUse">
        <path d="M 40 0 L 0 0 0 40" fill="none" stroke="rgba(255,255,255,0.06)" stroke-width="1"/>
      </pattern>
    </defs>
    <rect width="1280" height="800" fill="url(#bg)"/>
    <rect width="1280" height="800" fill="url(#grid)"/>
    <rect width="1280" height="800" fill="url(#glow1)"/>
    <rect width="1280" height="800" fill="url(#glow2)"/>
    
  <rect x="40" y="60" width="1200" height="680" rx="22" fill="rgba(255,255,255,0.08)" stroke="rgba(255,255,255,0.18)"/>
  <rect x="40" y="60" width="1200" height="48" rx="22" fill="rgba(0,0,0,0.18)"/>
  <circle cx="74" cy="84" r="7" fill="#ff5f57"/>
  <circle cx="98" cy="84" r="7" fill="#febc2e"/>
  <circle cx="122" cy="84" r="7" fill="#28c840"/>
  <rect x="160" y="72" width="520" height="24" rx="12" fill="rgba(255,255,255,0.18)"/>
  
    
  <rect x="60" y="128" width="1160" height="60" rx="14" fill="rgba(255,255,255,0.10)"/>
  <rect x="920" y="148" width="50" height="20" rx="10" fill="rgba(255,255,255,0.45)"/><rect x="990" y="148" width="50" height="20" rx="10" fill="rgba(255,255,255,0.45)"/><rect x="1060" y="148" width="50" height="20" rx="10" fill="rgba(255,255,255,0.45)"/><rect x="1130" y="148" width="50" height="20" rx="10" fill="rgba(255,255,255,0.45)"/>
  <text x="84" y="167" font-family="Outfit" font-weight="800" font-size="22" fill="#fff">BOBDO</text>
  <text x="640" y="320" text-anchor="middle" font-family="Outfit" font-weight="900" font-size="64" fill="#fff">BOBDO</text>
  <text x="640" y="370" text-anchor="middle" font-family="Inter" font-weight="500" font-size="20" fill="rgba(255,255,255,0.8)">NGO · Crafted by OnonnoBit</text>
  <rect x="470" y="410" width="160" height="50" rx="25" fill="#fff"/>
  <text x="550" y="442" text-anchor="middle" font-family="Inter" font-weight="700" font-size="16" fill="#715EB4">Get Started</text>
  <rect x="650" y="410" width="160" height="50" rx="25" fill="rgba(255,255,255,0.18)" stroke="rgba(255,255,255,0.5)"/>
  <text x="730" y="442" text-anchor="middle" font-family="Inter" font-weight="700" font-size="16" fill="#fff">Learn More</text>
  
    <rect x="140" y="520" width="306.6666666666667" height="160" rx="16" fill="rgba(255,255,255,0.10)"/>
    <circle cx="180" cy="560" r="20" fill="rgba(255,255,255,0.65)"/>
    <rect x="160" y="600" width="266.6666666666667" height="12" rx="6" fill="rgba(255,255,255,0.7)"/>
    <rect x="160" y="622" width="226.66666666666669" height="8" rx="4" fill="rgba(255,255,255,0.45)"/>
    <rect x="160" y="638" width="246.66666666666669" height="8" rx="4" fill="rgba(255,255,255,0.45)"/>
  
    <rect x="486.6666666666667" y="520" width="306.6666666666667" height="160" rx="16" fill="rgba(255,255,255,0.10)"/>
    <circle cx="526.6666666666667" cy="560" r="20" fill="rgba(255,255,255,0.65)"/>
    <rect x="506.6666666666667" y="600" width="266.6666666666667" height="12" rx="6" fill="rgba(255,255,255,0.7)"/>
    <rect x="506.6666666666667" y="622" width="226.66666666666669" height="8" rx="4" fill="rgba(255,255,255,0.45)"/>
    <rect x="506.6666666666667" y="638" width="246.66666666666669" height="8" rx="4" fill="rgba(255,255,255,0.45)"/>
  
    <rect x="833.3333333333334" y="520" width="306.6666666666667" height="160" rx="16" fill="rgba(255,255,255,0.10)"/>
    <circle cx="873.3333333333334" cy="560" r="20" fill="rgba(255,255,255,0.65)"/>
    <rect x="853.3333333333334" y="600" width="266.6666666666667" height="12" rx="6" fill="rgba(255,255,255,0.7)"/>
    <rect x="853.3333333333334" y="622" width="226.66666666666669" height="8" rx="4" fill="rgba(255,255,255,0.45)"/>
    <rect x="853.3333333333334" y="638" width="246.66666666666669" height="8" rx="4" fill="rgba(255,255,255,0.45)"/>
  
  
    <text x="1220" y="772" text-anchor="end" font-family="Outfit" font-weight="700" font-size="14" fill="rgba(255,255,255,0.6)">OnonnoBit</text>
  </svg>