<svg xmlns="http://www.w3.org/2000/svg" viewBox="0 0 1280 800" width="1280" height="800">
    <defs>
      <linearGradient id="bg" x1="0" y1="0" x2="1" y2="1">
        <stop offset="0%" stop-color="#715EB4"/>
        <stop offset="50%" stop-color="#5E4CB7"/>
        <stop offset="100%" stop-color="#8F7BDA"/>
      </linearGradient>
      <radialGradient id="glow1" cx="20%" cy="20%" r="50%"><stop offset="0%" stop-color="rgba(255,255,255,0.35)"/><stop offset="100%" stop-color="rgba(255,255,255,0)"/></radialGradient>
      <radialGradient id="glow2" cx="85%" cy="90%" r="50%"><stop offset="0%" stop-color="rgba(0,0,0,0.35)"/><stop offset="100%" stop-color="rgba(0,0,0,0)"/></radialGradient>
      <pattern id="grid" width="40" height="40" patternUnits="userSpaceOnUse">
        <path d="M 40 0 L 0 0 0 40" fill="none" stroke="rgba(255,255,255,0.06)" stroke-width="1"/>
      </pattern>
    </defs>
    <rect width="1280" height="800" fill="url(#bg)"/>
    <rect width="1280" height="800" fill="url(#grid)"/>
    <rect width="1280" height="800" fill="url(#glow1)"/>
    <rect width="1280" height="800" fill="url(#glow2)"/>
    
  <rect x="40" y="60" width="1200" height="680" rx="22" fill="rgba(255,255,255,0.08)" stroke="rgba(255,255,255,0.18)"/>
  <rect x="40" y="60" width="1200" height="48" rx="22" fill="rgba(0,0,0,0.18)"/>
  <circle cx="74" cy="84" r="7" fill="#ff5f57"/>
  <circle cx="98" cy="84" r="7" fill="#febc2e"/>
  <circle cx="122" cy="84" r="7" fill="#28c840"/>
  <rect x="160" y="72" width="520" height="24" rx="12" fill="rgba(255,255,255,0.18)"/>
  
    
  <rect x="60" y="128" width="1160" height="60" rx="14" fill="rgba(255,255,255,0.10)"/>
  <text x="84" y="167" font-family="Outfit" font-weight="800" font-size="22" fill="#fff">Darpan Academy</text>
  <rect x="1060" y="144" width="140" height="28" rx="14" fill="rgba(255,255,255,0.85)"/>
  <text x="1130" y="163" text-anchor="middle" font-family="Inter" font-weight="700" font-size="13" fill="#715EB4">LMS</text>
  <!-- video player -->
  <rect x="60" y="210" width="900" height="430" rx="16" fill="rgba(0,0,0,0.35)"/>
  <polygon points="486,395 486,455 536,425" fill="rgba(255,255,255,0.95)"/>
  <rect x="80" y="610" width="860" height="6" rx="3" fill="rgba(255,255,255,0.25)"/>
  <rect x="80" y="610" width="344" height="6" rx="3" fill="#fff"/>
  <!-- lessons list -->
  <rect x="980" y="210" width="240" height="430" rx="16" fill="rgba(255,255,255,0.10)"/>
  <text x="1000" y="244" font-family="Outfit" font-weight="700" font-size="16" fill="#fff">Lessons</text>
  
    <rect x="994" y="260" width="216" height="44" rx="10" fill="rgba(255,255,255,0.1)"/>
    <circle cx="1016" cy="282" r="10" fill="rgba(255,255,255,0.7)"/>
    <rect x="1032" y="274" width="120" height="8" rx="4" fill="rgba(255,255,255,0.7)"/>
    <rect x="1032" y="288" width="60" height="6" rx="3" fill="rgba(255,255,255,0.45)"/>
  
    <rect x="994" y="318" width="216" height="44" rx="10" fill="rgba(255,255,255,0.25)"/>
    <circle cx="1016" cy="340" r="10" fill="rgba(255,255,255,0.7)"/>
    <rect x="1032" y="332" width="120" height="8" rx="4" fill="rgba(255,255,255,0.7)"/>
    <rect x="1032" y="346" width="60" height="6" rx="3" fill="rgba(255,255,255,0.45)"/>
  
    <rect x="994" y="376" width="216" height="44" rx="10" fill="rgba(255,255,255,0.1)"/>
    <circle cx="1016" cy="398" r="10" fill="rgba(255,255,255,0.7)"/>
    <rect x="1032" y="390" width="120" height="8" rx="4" fill="rgba(255,255,255,0.7)"/>
    <rect x="1032" y="404" width="60" height="6" rx="3" fill="rgba(255,255,255,0.45)"/>
  
    <rect x="994" y="434" width="216" height="44" rx="10" fill="rgba(255,255,255,0.1)"/>
    <circle cx="1016" cy="456" r="10" fill="rgba(255,255,255,0.7)"/>
    <rect x="1032" y="448" width="120" height="8" rx="4" fill="rgba(255,255,255,0.7)"/>
    <rect x="1032" y="462" width="60" height="6" rx="3" fill="rgba(255,255,255,0.45)"/>
  
    <rect x="994" y="492" width="216" height="44" rx="10" fill="rgba(255,255,255,0.1)"/>
    <circle cx="1016" cy="514" r="10" fill="rgba(255,255,255,0.7)"/>
    <rect x="1032" y="506" width="120" height="8" rx="4" fill="rgba(255,255,255,0.7)"/>
    <rect x="1032" y="520" width="60" height="6" rx="3" fill="rgba(255,255,255,0.45)"/>
  
    <rect x="994" y="550" width="216" height="44" rx="10" fill="rgba(255,255,255,0.1)"/>
    <circle cx="1016" cy="572" r="10" fill="rgba(255,255,255,0.7)"/>
    <rect x="1032" y="564" width="120" height="8" rx="4" fill="rgba(255,255,255,0.7)"/>
    <rect x="1032" y="578" width="60" height="6" rx="3" fill="rgba(255,255,255,0.45)"/>
  
  
    <text x="1220" y="772" text-anchor="end" font-family="Outfit" font-weight="700" font-size="14" fill="rgba(255,255,255,0.6)">OnonnoBit</text>
  </svg>