<svg xmlns="http://www.w3.org/2000/svg" viewBox="0 0 1280 800" width="1280" height="800">
    <defs>
      <linearGradient id="bg" x1="0" y1="0" x2="1" y2="1">
        <stop offset="0%" stop-color="#715EB4"/>
        <stop offset="50%" stop-color="#5E4CB7"/>
        <stop offset="100%" stop-color="#8F7BDA"/>
      </linearGradient>
      <radialGradient id="glow1" cx="20%" cy="20%" r="50%"><stop offset="0%" stop-color="rgba(255,255,255,0.35)"/><stop offset="100%" stop-color="rgba(255,255,255,0)"/></radialGradient>
      <radialGradient id="glow2" cx="85%" cy="90%" r="50%"><stop offset="0%" stop-color="rgba(0,0,0,0.35)"/><stop offset="100%" stop-color="rgba(0,0,0,0)"/></radialGradient>
      <pattern id="grid" width="40" height="40" patternUnits="userSpaceOnUse">
        <path d="M 40 0 L 0 0 0 40" fill="none" stroke="rgba(255,255,255,0.06)" stroke-width="1"/>
      </pattern>
    </defs>
    <rect width="1280" height="800" fill="url(#bg)"/>
    <rect width="1280" height="800" fill="url(#grid)"/>
    <rect width="1280" height="800" fill="url(#glow1)"/>
    <rect width="1280" height="800" fill="url(#glow2)"/>
    
  <rect x="40" y="60" width="1200" height="680" rx="22" fill="rgba(255,255,255,0.08)" stroke="rgba(255,255,255,0.18)"/>
  <rect x="40" y="60" width="1200" height="48" rx="22" fill="rgba(0,0,0,0.18)"/>
  <circle cx="74" cy="84" r="7" fill="#ff5f57"/>
  <circle cx="98" cy="84" r="7" fill="#febc2e"/>
  <circle cx="122" cy="84" r="7" fill="#28c840"/>
  <rect x="160" y="72" width="520" height="24" rx="12" fill="rgba(255,255,255,0.18)"/>
  
    
  <!-- sidebar -->
  <rect x="60" y="128" width="200" height="600" rx="14" fill="rgba(255,255,255,0.10)"/>
  <rect x="80" y="150" width="160" height="14" rx="7" fill="rgba(255,255,255,0.55)"/>
  <rect x="80" y="190" width="140" height="10" rx="5" fill="rgba(255,255,255,0.25)"/><rect x="80" y="232" width="120" height="10" rx="5" fill="rgba(255,255,255,0.4)"/><rect x="80" y="274" width="100" height="10" rx="5" fill="rgba(255,255,255,0.25)"/><rect x="80" y="316" width="140" height="10" rx="5" fill="rgba(255,255,255,0.4)"/><rect x="80" y="358" width="120" height="10" rx="5" fill="rgba(255,255,255,0.25)"/><rect x="80" y="400" width="100" height="10" rx="5" fill="rgba(255,255,255,0.4)"/>
  <!-- header band -->
  <rect x="280" y="128" width="940" height="68" rx="14" fill="rgba(255,255,255,0.10)"/>
  <text x="300" y="172" font-family="Outfit, system-ui" font-weight="800" font-size="26" fill="#fff">Tournamention</text>
  <rect x="1060" y="148" width="120" height="28" rx="14" fill="rgba(255,255,255,0.85)"/>
  <text x="1120" y="168" text-anchor="middle" font-family="Inter" font-weight="700" font-size="13" fill="#715EB4">Business</text>
  <!-- KPI cards -->
  
    <rect x="280" y="216" width="160" height="92" rx="14" fill="rgba(255,255,255,0.12)"/>
    <rect x="300" y="236" width="60" height="10" rx="5" fill="rgba(255,255,255,0.55)"/>
    <text x="300" y="285" font-family="Outfit" font-weight="800" font-size="28" fill="#fff">1.2k</text>
  
    <rect x="460" y="216" width="160" height="92" rx="14" fill="rgba(255,255,255,0.12)"/>
    <rect x="480" y="236" width="60" height="10" rx="5" fill="rgba(255,255,255,0.55)"/>
    <text x="480" y="285" font-family="Outfit" font-weight="800" font-size="28" fill="#fff">486</text>
  
    <rect x="640" y="216" width="160" height="92" rx="14" fill="rgba(255,255,255,0.12)"/>
    <rect x="660" y="236" width="60" height="10" rx="5" fill="rgba(255,255,255,0.55)"/>
    <text x="660" y="285" font-family="Outfit" font-weight="800" font-size="28" fill="#fff">98%</text>
  
    <rect x="820" y="216" width="160" height="92" rx="14" fill="rgba(255,255,255,0.12)"/>
    <rect x="840" y="236" width="60" height="10" rx="5" fill="rgba(255,255,255,0.55)"/>
    <text x="840" y="285" font-family="Outfit" font-weight="800" font-size="28" fill="#fff">24</text>
  
  <!-- chart -->
  <rect x="280" y="328" width="700" height="392" rx="14" fill="rgba(255,255,255,0.10)"/>
  <polyline points="320,640 400,580 480,620 560,540 640,600 720,500 800,560 880,460" stroke="#fff" stroke-width="3" fill="none" opacity="0.9"/>
  <polyline points="320,640 400,580 480,620 560,540 640,600 720,500 800,560 880,460 880,680 320,680" fill="rgba(255,255,255,0.18)"/>
  <!-- side widget -->
  <rect x="1000" y="328" width="220" height="392" rx="14" fill="rgba(255,255,255,0.10)"/>
  
    <circle cx="1030" cy="360" r="14" fill="rgba(255,255,255,0.6)"/>
    <rect x="1058" y="354" width="120" height="10" rx="5" fill="rgba(255,255,255,0.55)"/>
    <rect x="1058" y="370" width="80" height="8" rx="4" fill="rgba(255,255,255,0.35)"/>
  
    <circle cx="1030" cy="430" r="14" fill="rgba(255,255,255,0.6)"/>
    <rect x="1058" y="424" width="120" height="10" rx="5" fill="rgba(255,255,255,0.55)"/>
    <rect x="1058" y="440" width="80" height="8" rx="4" fill="rgba(255,255,255,0.35)"/>
  
    <circle cx="1030" cy="500" r="14" fill="rgba(255,255,255,0.6)"/>
    <rect x="1058" y="494" width="120" height="10" rx="5" fill="rgba(255,255,255,0.55)"/>
    <rect x="1058" y="510" width="80" height="8" rx="4" fill="rgba(255,255,255,0.35)"/>
  
    <circle cx="1030" cy="570" r="14" fill="rgba(255,255,255,0.6)"/>
    <rect x="1058" y="564" width="120" height="10" rx="5" fill="rgba(255,255,255,0.55)"/>
    <rect x="1058" y="580" width="80" height="8" rx="4" fill="rgba(255,255,255,0.35)"/>
  
  
    <text x="1220" y="772" text-anchor="end" font-family="Outfit" font-weight="700" font-size="14" fill="rgba(255,255,255,0.6)">OnonnoBit</text>
  </svg>