<svg xmlns="http://www.w3.org/2000/svg" viewBox="0 0 1280 800" width="1280" height="800">
    <defs>
      <linearGradient id="bg" x1="0" y1="0" x2="1" y2="1">
        <stop offset="0%" stop-color="#5E4CB7"/>
        <stop offset="50%" stop-color="#715EB4"/>
        <stop offset="100%" stop-color="#8F7BDA"/>
      </linearGradient>
      <radialGradient id="glow1" cx="20%" cy="20%" r="50%"><stop offset="0%" stop-color="rgba(255,255,255,0.35)"/><stop offset="100%" stop-color="rgba(255,255,255,0)"/></radialGradient>
      <radialGradient id="glow2" cx="85%" cy="90%" r="50%"><stop offset="0%" stop-color="rgba(0,0,0,0.35)"/><stop offset="100%" stop-color="rgba(0,0,0,0)"/></radialGradient>
      <pattern id="grid" width="40" height="40" patternUnits="userSpaceOnUse">
        <path d="M 40 0 L 0 0 0 40" fill="none" stroke="rgba(255,255,255,0.06)" stroke-width="1"/>
      </pattern>
    </defs>
    <rect width="1280" height="800" fill="url(#bg)"/>
    <rect width="1280" height="800" fill="url(#grid)"/>
    <rect width="1280" height="800" fill="url(#glow1)"/>
    <rect width="1280" height="800" fill="url(#glow2)"/>
    
  <rect x="40" y="60" width="1200" height="680" rx="22" fill="rgba(255,255,255,0.08)" stroke="rgba(255,255,255,0.18)"/>
  <rect x="40" y="60" width="1200" height="48" rx="22" fill="rgba(0,0,0,0.18)"/>
  <circle cx="74" cy="84" r="7" fill="#ff5f57"/>
  <circle cx="98" cy="84" r="7" fill="#febc2e"/>
  <circle cx="122" cy="84" r="7" fill="#28c840"/>
  <rect x="160" y="72" width="520" height="24" rx="12" fill="rgba(255,255,255,0.18)"/>
  
    
  <rect x="60" y="128" width="1160" height="60" rx="14" fill="rgba(255,255,255,0.10)"/>
  <text x="84" y="167" font-family="Outfit" font-weight="800" font-size="22" fill="#fff">Zpad</text>
  <rect x="1060" y="144" width="140" height="28" rx="14" fill="rgba(255,255,255,0.85)"/>
  <text x="1130" y="163" text-anchor="middle" font-family="Inter" font-weight="700" font-size="13" fill="#715EB4">Utility</text>
  <rect x="320" y="230" width="640" height="380" rx="20" fill="rgba(255,255,255,0.12)"/>
  <rect x="350" y="260" width="580" height="80" rx="14" fill="rgba(255,255,255,0.18)"/>
  <text x="370" y="312" font-family="Outfit" font-weight="800" font-size="40" fill="#fff">1,234.56</text>
  <text x="880" y="312" text-anchor="end" font-family="Inter" font-weight="700" font-size="18" fill="rgba(255,255,255,0.8)">USD</text>
  <rect x="350" y="360" width="580" height="80" rx="14" fill="rgba(255,255,255,0.10)"/>
  <text x="370" y="412" font-family="Outfit" font-weight="800" font-size="40" fill="#fff">€ 1,142.31</text>
  
      <rect x="350" y="470" width="180" height="48" rx="12" fill="rgba(255,255,255,0.16)"/>
      <text x="440" y="500" text-anchor="middle" font-family="Inter" font-weight="700" font-size="14" fill="#fff">KM</text>
    
      <rect x="550" y="470" width="180" height="48" rx="12" fill="rgba(255,255,255,0.16)"/>
      <text x="640" y="500" text-anchor="middle" font-family="Inter" font-weight="700" font-size="14" fill="#fff">MI</text>
    
      <rect x="750" y="470" width="180" height="48" rx="12" fill="rgba(255,255,255,0.16)"/>
      <text x="840" y="500" text-anchor="middle" font-family="Inter" font-weight="700" font-size="14" fill="#fff">KG</text>
    
      <rect x="350" y="530" width="180" height="48" rx="12" fill="rgba(255,255,255,0.16)"/>
      <text x="440" y="560" text-anchor="middle" font-family="Inter" font-weight="700" font-size="14" fill="#fff">LB</text>
    
      <rect x="550" y="530" width="180" height="48" rx="12" fill="rgba(255,255,255,0.16)"/>
      <text x="640" y="560" text-anchor="middle" font-family="Inter" font-weight="700" font-size="14" fill="#fff">°C</text>
    
      <rect x="750" y="530" width="180" height="48" rx="12" fill="rgba(255,255,255,0.16)"/>
      <text x="840" y="560" text-anchor="middle" font-family="Inter" font-weight="700" font-size="14" fill="#fff">°F</text>
    
  
    <text x="1220" y="772" text-anchor="end" font-family="Outfit" font-weight="700" font-size="14" fill="rgba(255,255,255,0.6)">OnonnoBit</text>
  </svg>